<svg width="49" height="44" viewBox="0 0 49 44" fill="none" xmlns="http://www.w3.org/2000/svg">
<path d="M48.0841 43.7443H0.91587C0.740436 43.7443 0.572187 43.6742 0.448136 43.5495C0.324086 43.4248 0.254395 43.2556 0.254395 43.0792C0.254395 42.9028 0.324086 42.7336 0.448136 42.6089C0.572187 42.4841 0.740436 42.4141 0.91587 42.4141H48.0841C48.2595 42.4141 48.4278 42.4841 48.5518 42.6089C48.6759 42.7336 48.7456 42.9028 48.7456 43.0792C48.7456 43.2556 48.6759 43.4248 48.5518 43.5495C48.4278 43.6742 48.2595 43.7443 48.0841 43.7443Z" fill="white"/>
<path d="M48.0841 44.0001H0.915888C0.67298 44.0001 0.44002 43.903 0.268257 43.7303C0.0964951 43.5576 0 43.3234 0 43.0791C0 42.8349 0.0964951 42.6006 0.268257 42.4279C0.44002 42.2552 0.67298 42.1582 0.915888 42.1582H48.0841C48.327 42.1582 48.56 42.2552 48.7317 42.4279C48.9035 42.6006 49 42.8349 49 43.0791C49 43.3234 48.9035 43.5576 48.7317 43.7303C48.56 43.903 48.327 44.0001 48.0841 44.0001ZM0.915888 42.6442C0.804555 42.6442 0.697782 42.6887 0.619058 42.7679C0.540333 42.847 0.496106 42.9544 0.496106 43.0663C0.496106 43.1783 0.540333 43.2856 0.619058 43.3648C0.697782 43.444 0.804555 43.4884 0.915888 43.4884H48.0841C48.1954 43.4884 48.3022 43.444 48.3809 43.3648C48.4597 43.2856 48.5039 43.1783 48.5039 43.0663C48.5039 42.9544 48.4597 42.847 48.3809 42.7679C48.3022 42.6887 48.1954 42.6442 48.0841 42.6442H0.915888Z" fill="white"/>
<path d="M13.2294 38.5509C13.0775 38.555 12.9288 38.5064 12.8083 38.4132C12.6879 38.3201 12.603 38.188 12.568 38.0393L12.0846 30.3649C12.0418 30.2318 12.0418 30.0886 12.0846 29.9556L30.9112 0.767213C30.9578 0.693106 31.0185 0.628993 31.0898 0.578562C31.1611 0.528131 31.2417 0.492378 31.3268 0.473358C31.4119 0.454339 31.4999 0.452428 31.5858 0.467737C31.6716 0.483046 31.7536 0.515273 31.8271 0.562562L39.4594 5.67884C39.5331 5.72569 39.5969 5.78674 39.6471 5.85846C39.6972 5.93018 39.7328 6.01116 39.7517 6.09674C39.7706 6.18233 39.7725 6.27084 39.7573 6.35717C39.7421 6.44349 39.71 6.52594 39.663 6.59977L21.0145 35.4812C20.9346 35.6001 20.8186 35.6898 20.6838 35.737L13.4839 38.4998L13.2294 38.5509ZM13.433 30.3649L13.84 36.9905L19.9968 34.6626L38.3655 6.13931L31.7762 1.84163L13.433 30.3649Z" fill="white"/>
<path d="M13.2296 38.7812C13.0146 38.7853 12.805 38.7133 12.6376 38.5776C12.4701 38.442 12.3555 38.2515 12.3137 38.0394L11.8303 30.3649C11.8192 30.1657 11.8728 29.9682 11.9829 29.8022L30.8095 0.613779C30.8742 0.51079 30.9586 0.421725 31.0577 0.351743C31.1569 0.28176 31.2688 0.232251 31.3871 0.20608C31.5055 0.179908 31.6277 0.177595 31.747 0.199275C31.8662 0.220956 31.9799 0.266199 32.0816 0.332384L39.714 5.44866C39.8164 5.5137 39.905 5.59852 39.9746 5.69822C40.0442 5.79791 40.0934 5.9105 40.1195 6.02946C40.1455 6.14842 40.1478 6.27139 40.1262 6.39125C40.1047 6.51111 40.0597 6.62548 39.9938 6.72773L21.1673 35.9161C21.0638 36.078 20.9126 36.2032 20.7348 36.2742L13.5094 39.0115L13.2296 38.7812ZM31.5728 0.409128C31.4678 0.432667 31.3763 0.497048 31.3184 0.588198L12.4154 29.9045C12.3883 29.9876 12.3883 30.0772 12.4154 30.1603L12.8988 37.8347C12.9022 37.8999 12.921 37.9634 12.9537 38.0198C12.9864 38.0762 13.032 38.1239 13.0868 38.1589C13.1416 38.194 13.2039 38.2154 13.2686 38.2213C13.3333 38.2272 13.3984 38.2174 13.4585 38.1928L20.6076 35.4812C20.6744 35.4975 20.7442 35.4975 20.8111 35.4812L39.6377 6.29285C39.6773 6.1944 39.6773 6.08432 39.6377 5.98587C39.6143 5.88029 39.5502 5.78831 39.4596 5.73006L31.8272 0.613779L31.5728 0.409128ZM13.7638 37.0928H13.6366C13.6226 37.0606 13.6154 37.0257 13.6154 36.9905C13.6154 36.9553 13.6226 36.9205 13.6366 36.8882L13.1787 30.3649C13.1631 30.315 13.1631 30.2614 13.1787 30.2115L31.5728 1.71378C31.6203 1.66691 31.6843 1.64065 31.7509 1.64065C31.8174 1.64065 31.8814 1.66691 31.9289 1.71378L38.4928 5.98587C38.5394 6.03369 38.5655 6.09798 38.5655 6.16494C38.5655 6.2319 38.5394 6.29619 38.4928 6.34401L20.2259 34.7138L14.0691 37.0417L13.7638 37.0928ZM13.6875 30.3649L14.0691 36.5556L19.8443 34.3556L38.0094 6.21611L31.8526 2.22541L13.6875 30.3649ZM20.3531 35.4812C20.2857 35.4812 20.221 35.4543 20.1732 35.4063C20.1255 35.3583 20.0987 35.2933 20.0987 35.2254C20.0987 35.1576 20.1255 35.0925 20.1732 35.0445C20.221 34.9965 20.2857 34.9696 20.3531 34.9696C20.4206 34.9696 20.4853 34.9965 20.533 35.0445C20.5808 35.0925 20.6076 35.1576 20.6076 35.2254C20.6076 35.2933 20.5808 35.3583 20.533 35.4063C20.4853 35.4543 20.4206 35.4812 20.3531 35.4812Z" fill="white"/>
</svg>
