<svg width="40" height="40" viewBox="0 0 40 40" fill="none" xmlns="http://www.w3.org/2000/svg">
<path d="M39.2591 38.7766H0.741309C0.671018 38.7766 0.601416 38.7629 0.536476 38.7364C0.471535 38.7098 0.41253 38.6709 0.362827 38.6219C0.313124 38.5728 0.273697 38.5146 0.246798 38.4505C0.219899 38.3865 0.206055 38.3178 0.206055 38.2484V0.73125C0.206055 0.591183 0.262448 0.456852 0.362827 0.357809C0.463207 0.258767 0.599351 0.203125 0.741309 0.203125H39.2591C39.401 0.203125 39.5372 0.258767 39.6375 0.357809C39.7379 0.456852 39.7943 0.591183 39.7943 0.73125V38.2484C39.7943 38.3885 39.7379 38.5228 39.6375 38.6219C39.5372 38.7209 39.401 38.7766 39.2591 38.7766ZM1.27656 37.7203H38.7238V1.15781H1.27656V37.7203Z" fill="white"/>
<path d="M39.2589 39.0203H0.741121C0.544564 39.0203 0.356057 38.9433 0.21707 38.8061C0.0780823 38.669 0 38.483 0 38.2891V0.73125C0 0.635221 0.0191697 0.540132 0.0564145 0.451412C0.0936594 0.362693 0.14825 0.282081 0.21707 0.214178C0.285889 0.146275 0.367589 0.0924118 0.457506 0.0556631C0.547424 0.0189143 0.643796 0 0.741121 0H39.2589C39.4554 0 39.6439 0.0770422 39.7829 0.214178C39.9219 0.351314 40 0.537311 40 0.73125V38.2484C40.0056 38.3478 39.9906 38.4473 39.9559 38.5408C39.9211 38.6342 39.8674 38.7197 39.798 38.792C39.7287 38.8642 39.645 38.9218 39.5523 38.961C39.4596 39.0003 39.3598 39.0205 39.2589 39.0203ZM0.741121 0.426563C0.664507 0.43597 0.593677 0.471632 0.540999 0.527322C0.488321 0.583011 0.457142 0.655188 0.452907 0.73125V38.2484C0.452907 38.3346 0.487611 38.4173 0.549383 38.4782C0.611155 38.5392 0.694936 38.5734 0.782295 38.5734H39.2589C39.3426 38.5683 39.4212 38.5317 39.4786 38.4714C39.536 38.411 39.5678 38.3312 39.5677 38.2484V0.73125C39.5628 0.652017 39.5287 0.577285 39.4718 0.521155C39.4149 0.465025 39.3392 0.431378 39.2589 0.426563H0.741121ZM38.7236 37.9234H1.27638C1.24934 37.9234 1.22257 37.9182 1.19759 37.908C1.17262 37.8978 1.14992 37.8828 1.13081 37.8639C1.11169 37.8451 1.09653 37.8227 1.08618 37.798C1.07583 37.7734 1.07051 37.747 1.07051 37.7203V1.15781C1.07051 1.10394 1.0922 1.05228 1.13081 1.01418C1.16941 0.976089 1.22178 0.954688 1.27638 0.954688H38.7236C38.7782 0.954688 38.8306 0.976089 38.8692 1.01418C38.9078 1.05228 38.9295 1.10394 38.9295 1.15781V37.7203C38.9295 37.747 38.9242 37.7734 38.9138 37.798C38.9035 37.8227 38.8883 37.8451 38.8692 37.8639C38.8501 37.8828 38.8274 37.8978 38.8024 37.908C38.7774 37.9182 38.7507 37.9234 38.7236 37.9234ZM1.48224 37.5172H38.5383V1.4625H1.48224V37.5172Z" fill="white"/>
<path d="M11.6935 17.0423C11.5515 17.0423 11.4154 16.9866 11.315 16.8876C11.2146 16.7886 11.1582 16.6542 11.1582 16.5142V8.00322C11.1582 7.93387 11.172 7.86519 11.1989 7.80112C11.2258 7.73704 11.2653 7.67882 11.315 7.62978C11.3647 7.58074 11.4237 7.54184 11.4886 7.5153C11.5536 7.48876 11.6232 7.4751 11.6935 7.4751C11.7637 7.4751 11.8334 7.48876 11.8983 7.5153C11.9632 7.54184 12.0222 7.58074 12.0719 7.62978C12.1216 7.67882 12.1611 7.73704 12.188 7.80112C12.2149 7.86519 12.2287 7.93387 12.2287 8.00322V16.5142C12.2287 16.6542 12.1723 16.7886 12.0719 16.8876C11.9716 16.9866 11.8354 17.0423 11.6935 17.0423Z" fill="white"/>
<path d="M11.6933 17.2454C11.4967 17.2454 11.3082 17.1684 11.1692 17.0312C11.0302 16.8941 10.9521 16.7081 10.9521 16.5142V8.00322C10.9521 7.80928 11.0302 7.62329 11.1692 7.48615C11.3082 7.34902 11.4967 7.27197 11.6933 7.27197C11.8898 7.27197 12.0783 7.34902 12.2173 7.48615C12.3563 7.62329 12.4344 7.80928 12.4344 8.00322V16.5142C12.4344 16.7081 12.3563 16.8941 12.2173 17.0312C12.0783 17.1684 11.8898 17.2454 11.6933 17.2454ZM11.6933 7.65791C11.6059 7.65791 11.5221 7.69215 11.4604 7.7531C11.3986 7.81405 11.3639 7.89672 11.3639 7.98291V16.4938C11.3639 16.5827 11.3997 16.668 11.4634 16.7308C11.5271 16.7937 11.6135 16.829 11.7036 16.829C11.7937 16.829 11.8801 16.7937 11.9438 16.7308C12.0075 16.668 12.0432 16.5827 12.0432 16.4938V8.00322C12.0433 7.95878 12.0342 7.91479 12.0164 7.87397C11.9985 7.83316 11.9724 7.79638 11.9396 7.76592C11.9068 7.73546 11.868 7.71196 11.8257 7.69688C11.7833 7.68179 11.7382 7.67544 11.6933 7.67822V7.65791Z" fill="white"/>
<path d="M16.0166 12.7966H7.37021C7.22826 12.7966 7.09211 12.7409 6.99173 12.6419C6.89135 12.5429 6.83496 12.4085 6.83496 12.2685C6.83496 12.1284 6.89135 11.9941 6.99173 11.895C7.09211 11.796 7.22826 11.7403 7.37021 11.7403H15.9961C16.138 11.7376 16.2752 11.7907 16.3775 11.8878C16.4799 11.985 16.5389 12.1182 16.5416 12.2583C16.5443 12.3984 16.4906 12.5338 16.3921 12.6347C16.2937 12.7357 16.1586 12.7939 16.0166 12.7966Z" fill="white"/>
<path d="M16.0165 13.0002H7.37003C7.17347 13.0002 6.98496 12.9231 6.84597 12.786C6.70699 12.6489 6.62891 12.4629 6.62891 12.2689C6.62891 12.075 6.70699 11.889 6.84597 11.7518C6.98496 11.6147 7.17347 11.5377 7.37003 11.5377H15.9959C16.1924 11.535 16.382 11.6094 16.5229 11.7447C16.6638 11.8799 16.7445 12.0648 16.7473 12.2588C16.75 12.4527 16.6745 12.6398 16.5375 12.7788C16.4004 12.9178 16.213 12.9975 16.0165 13.0002ZM7.39061 11.9439C7.30053 11.9439 7.21413 11.9792 7.15042 12.0421C7.08672 12.1049 7.05093 12.1902 7.05093 12.2791C7.05093 12.368 7.08672 12.4532 7.15042 12.5161C7.21413 12.5789 7.30053 12.6142 7.39061 12.6142H16.0165C16.1065 12.6142 16.1929 12.5789 16.2566 12.5161C16.3203 12.4532 16.3561 12.368 16.3561 12.2791C16.3561 12.1902 16.3203 12.1049 16.2566 12.0421C16.1929 11.9792 16.1065 11.9439 16.0165 11.9439H7.37003H7.39061Z" fill="white"/>
<path d="M32.6093 12.797H23.9835C23.8415 12.797 23.7054 12.7413 23.605 12.6423C23.5046 12.5432 23.4482 12.4089 23.4482 12.2688C23.4482 12.1288 23.5046 11.9945 23.605 11.8954C23.7054 11.7964 23.8415 11.7407 23.9835 11.7407H32.6093C32.7513 11.7407 32.8874 11.7964 32.9878 11.8954C33.0882 11.9945 33.1446 12.1288 33.1446 12.2688C33.1446 12.4089 33.0882 12.5432 32.9878 12.6423C32.8874 12.7413 32.7513 12.797 32.6093 12.797Z" fill="white"/>
<path d="M32.6091 13.0001H23.9833C23.7868 13.0001 23.5982 12.9231 23.4593 12.7859C23.3203 12.6488 23.2422 12.4628 23.2422 12.2688C23.2422 12.0749 23.3203 11.8889 23.4593 11.7518C23.5982 11.6146 23.7868 11.5376 23.9833 11.5376H32.6091C32.8057 11.5376 32.9942 11.6146 33.1332 11.7518C33.2722 11.8889 33.3503 12.0749 33.3503 12.2688C33.3503 12.4628 33.2722 12.6488 33.1332 12.7859C32.9942 12.9231 32.8057 13.0001 32.6091 13.0001ZM23.9833 11.9438C23.8932 11.9438 23.8068 11.9792 23.7431 12.042C23.6794 12.1049 23.6436 12.1901 23.6436 12.279C23.6436 12.3679 23.6794 12.4531 23.7431 12.516C23.8068 12.5788 23.8932 12.6142 23.9833 12.6142H32.6091C32.6992 12.6142 32.7856 12.5788 32.8493 12.516C32.913 12.4531 32.9488 12.3679 32.9488 12.279C32.9488 12.1901 32.913 12.1049 32.8493 12.042C32.7856 11.9792 32.6992 11.9438 32.6091 11.9438H23.9833Z" fill="white"/>
<path d="M32.6093 28.4986H23.9835C23.9132 28.4986 23.8436 28.485 23.7787 28.4584C23.7137 28.4319 23.6547 28.393 23.605 28.3439C23.5553 28.2949 23.5159 28.2367 23.489 28.1726C23.4621 28.1085 23.4482 28.0399 23.4482 27.9705C23.4482 27.9012 23.4621 27.8325 23.489 27.7684C23.5159 27.7043 23.5553 27.6461 23.605 27.5971C23.6547 27.548 23.7137 27.5091 23.7787 27.4826C23.8436 27.456 23.9132 27.4424 23.9835 27.4424H32.6093C32.7513 27.4424 32.8874 27.498 32.9878 27.5971C33.0882 27.6961 33.1446 27.8304 33.1446 27.9705C33.1446 28.1106 33.0882 28.2449 32.9878 28.3439C32.8874 28.443 32.7513 28.4986 32.6093 28.4986Z" fill="white"/>
<path d="M32.6091 28.6812H23.9833C23.7868 28.6812 23.5982 28.6042 23.4593 28.4671C23.3203 28.3299 23.2422 28.1439 23.2422 27.95C23.2422 27.7561 23.3203 27.5701 23.4593 27.4329C23.5982 27.2958 23.7868 27.2188 23.9833 27.2188H32.6091C32.8057 27.2187 32.9942 27.2958 33.1332 27.4329C33.2722 27.5701 33.3503 27.7561 33.3503 27.95C33.3503 28.1439 33.2722 28.3299 33.1332 28.4671C32.9942 28.6042 32.8057 28.6812 32.6091 28.6812ZM23.9833 27.625C23.8932 27.625 23.8068 27.6603 23.7431 27.7232C23.6794 27.786 23.6436 27.8713 23.6436 27.9602C23.6436 28.049 23.6794 28.1343 23.7431 28.1971C23.8068 28.26 23.8932 28.2953 23.9833 28.2953H32.6091C32.6992 28.2953 32.7856 28.26 32.8493 28.1971C32.913 28.1343 32.9488 28.049 32.9488 27.9602C32.9488 27.8713 32.913 27.786 32.8493 27.7232C32.7856 27.6603 32.6992 27.625 32.6091 27.625H23.9833Z" fill="white"/>
<path d="M8.6877 31.058C8.57808 31.0633 8.46944 31.0353 8.3765 30.9777C8.28356 30.9201 8.21082 30.8357 8.16813 30.7359C8.12544 30.6362 8.11486 30.5259 8.13783 30.42C8.1608 30.3141 8.21622 30.2177 8.29656 30.1439L14.4726 24.0502C14.5226 24.0008 14.582 23.9617 14.6473 23.935C14.7127 23.9083 14.7827 23.8945 14.8534 23.8945C14.9242 23.8945 14.9942 23.9083 15.0595 23.935C15.1249 23.9617 15.1843 24.0008 15.2343 24.0502C15.2843 24.0995 15.324 24.1581 15.351 24.2226C15.3781 24.2871 15.392 24.3562 15.392 24.426C15.392 24.4958 15.3781 24.5649 15.351 24.6293C15.324 24.6938 15.2843 24.7524 15.2343 24.8017L9.05827 30.8955C8.96113 30.9955 8.82804 31.0539 8.6877 31.058Z" fill="white"/>
<path d="M8.68749 31.261C8.53761 31.2656 8.38984 31.2253 8.26371 31.1453C8.13757 31.0652 8.03899 30.9494 7.981 30.8129C7.92301 30.6765 7.90833 30.5259 7.93891 30.3811C7.96948 30.2362 8.04386 30.1039 8.15223 30.0017L14.3282 23.9079C14.4675 23.7705 14.6563 23.6934 14.8532 23.6934C15.0501 23.6934 15.2389 23.7705 15.3782 23.9079C15.5174 24.0453 15.5956 24.2316 15.5956 24.4259C15.5956 24.6202 15.5174 24.8065 15.3782 24.9438L9.20215 31.0376C9.06701 31.1759 8.88213 31.2561 8.68749 31.261ZM14.8635 24.172C14.7843 24.1403 14.6957 24.1403 14.6165 24.172L8.44045 30.2657C8.40869 30.296 8.38345 30.3323 8.3662 30.3725C8.34896 30.4126 8.34007 30.4557 8.34007 30.4993C8.34007 30.5429 8.34896 30.586 8.3662 30.6262C8.38345 30.6663 8.40869 30.7026 8.44045 30.7329C8.50502 30.7914 8.58951 30.8239 8.67719 30.8239C8.76488 30.8239 8.84936 30.7914 8.91394 30.7329L15.09 24.6392C15.1176 24.5854 15.1295 24.5251 15.1244 24.465C15.1193 24.405 15.0974 24.3475 15.061 24.299C15.0247 24.2506 14.9755 24.213 14.9188 24.1906C14.8621 24.1681 14.8002 24.1617 14.74 24.172H14.8635Z" fill="white"/>
<path d="M14.74 31.058C14.5996 31.0539 14.4666 30.9955 14.3694 30.8955L8.1934 24.8017C8.14339 24.7524 8.10371 24.6938 8.07664 24.6293C8.04958 24.5649 8.03564 24.4958 8.03564 24.426C8.03564 24.3562 8.04958 24.2871 8.07664 24.2226C8.10371 24.1581 8.14339 24.0995 8.1934 24.0502C8.24341 24.0008 8.30279 23.9617 8.36814 23.935C8.43348 23.9083 8.50352 23.8945 8.57425 23.8945C8.64498 23.8945 8.71502 23.9083 8.78037 23.935C8.84572 23.9617 8.90509 24.0008 8.95511 24.0502L15.1311 30.1439C15.2115 30.2177 15.2669 30.3141 15.2898 30.42C15.3128 30.5259 15.3022 30.6362 15.2596 30.7359C15.2169 30.8357 15.1441 30.9201 15.0512 30.9777C14.9582 31.0353 14.8496 31.0633 14.74 31.058Z" fill="white"/>
<path d="M14.7402 31.261C14.6404 31.2613 14.5415 31.2416 14.4495 31.2032C14.3575 31.1648 14.2743 31.1085 14.205 31.0376L8.02897 24.9438C7.88974 24.8065 7.81152 24.6202 7.81152 24.4259C7.81152 24.2316 7.88974 24.0453 8.02897 23.9079C8.1682 23.7705 8.35703 23.6934 8.55393 23.6934C8.75083 23.6934 8.93966 23.7705 9.07889 23.9079L15.2549 30.0017C15.3619 30.1027 15.4357 30.2331 15.4669 30.376C15.498 30.5189 15.485 30.6677 15.4297 30.8032C15.3743 30.9388 15.279 31.0548 15.1561 31.1364C15.0332 31.218 14.8884 31.2614 14.7402 31.261ZM8.68775 24.172C8.61832 24.1655 8.54862 24.181 8.48868 24.2161C8.42873 24.2513 8.38164 24.3043 8.35417 24.3675C8.3267 24.4308 8.32028 24.501 8.33583 24.568C8.35138 24.6351 8.3881 24.6956 8.44071 24.7407L14.6167 30.8345C14.6813 30.893 14.7658 30.9255 14.8535 30.9255C14.9412 30.9255 15.0256 30.893 15.0902 30.8345C15.122 30.8042 15.1472 30.7679 15.1645 30.7277C15.1817 30.6876 15.1906 30.6445 15.1906 30.6009C15.1906 30.5573 15.1817 30.5141 15.1645 30.474C15.1472 30.4339 15.122 30.3976 15.0902 30.3673L8.9142 24.2735C8.85507 24.2118 8.77378 24.1753 8.68775 24.172Z" fill="white"/>
<path d="M29.2743 25.4718H27.545C27.4031 25.4718 27.2669 25.4161 27.1665 25.3171C27.0662 25.2181 27.0098 25.0837 27.0098 24.9437C27.0098 24.8036 27.0662 24.6693 27.1665 24.5702C27.2669 24.4712 27.4031 24.4155 27.545 24.4155H29.2743C29.4163 24.4155 29.5524 24.4712 29.6528 24.5702C29.7532 24.6693 29.8096 24.8036 29.8096 24.9437C29.8096 25.0837 29.7532 25.2181 29.6528 25.3171C29.5524 25.4161 29.4163 25.4718 29.2743 25.4718Z" fill="white"/>
<path d="M29.2741 25.6749H27.5448C27.3483 25.6749 27.1598 25.5979 27.0208 25.4607C26.8818 25.3236 26.8037 25.1376 26.8037 24.9437C26.8037 24.7497 26.8818 24.5637 27.0208 24.4266C27.1598 24.2894 27.3483 24.2124 27.5448 24.2124H29.2741C29.4707 24.2124 29.6592 24.2894 29.7982 24.4266C29.9372 24.5637 30.0152 24.7497 30.0152 24.9437C30.0152 25.1376 29.9372 25.3236 29.7982 25.4607C29.6592 25.5979 29.4707 25.6749 29.2741 25.6749ZM27.5654 24.6187C27.4753 24.6187 27.3889 24.654 27.3252 24.7168C27.2615 24.7797 27.2257 24.8649 27.2257 24.9538C27.2257 25.0427 27.2615 25.1279 27.3252 25.1908C27.3889 25.2537 27.4753 25.289 27.5654 25.289H29.2741C29.3642 25.289 29.4506 25.2537 29.5143 25.1908C29.578 25.1279 29.6138 25.0427 29.6138 24.9538C29.6138 24.8649 29.578 24.7797 29.5143 24.7168C29.4506 24.654 29.3642 24.6187 29.2741 24.6187H27.5448H27.5654Z" fill="white"/>
<path d="M29.2743 31.5045H27.545C27.4031 31.5045 27.2669 31.4489 27.1665 31.3498C27.0662 31.2508 27.0098 31.1164 27.0098 30.9764C27.0098 30.8363 27.0662 30.702 27.1665 30.6029C27.2669 30.5039 27.4031 30.4482 27.545 30.4482H29.2743C29.3446 30.4482 29.4142 30.4619 29.4791 30.4884C29.5441 30.515 29.6031 30.5539 29.6528 30.6029C29.7025 30.652 29.7419 30.7102 29.7688 30.7743C29.7957 30.8383 29.8096 30.907 29.8096 30.9764C29.8096 31.0457 29.7957 31.1144 29.7688 31.1785C29.7419 31.2425 29.7025 31.3008 29.6528 31.3498C29.6031 31.3988 29.5441 31.4377 29.4791 31.4643C29.4142 31.4908 29.3446 31.5045 29.2743 31.5045Z" fill="white"/>
<path d="M29.2741 31.7076H27.5448C27.4475 31.7076 27.3511 31.6887 27.2612 31.652C27.1713 31.6152 27.0896 31.5613 27.0208 31.4934C26.952 31.4255 26.8974 31.3449 26.8601 31.2562C26.8229 31.1675 26.8037 31.0724 26.8037 30.9764C26.8037 30.8803 26.8229 30.7852 26.8601 30.6965C26.8974 30.6078 26.952 30.5272 27.0208 30.4593C27.0896 30.3914 27.1713 30.3375 27.2612 30.3008C27.3511 30.264 27.4475 30.2451 27.5448 30.2451H29.2741C29.3714 30.2451 29.4678 30.264 29.5577 30.3008C29.6477 30.3375 29.7294 30.3914 29.7982 30.4593C29.867 30.5272 29.9216 30.6078 29.9588 30.6965C29.9961 30.7852 30.0152 30.8803 30.0152 30.9764C30.0152 31.0724 29.9961 31.1675 29.9588 31.2562C29.9216 31.3449 29.867 31.4255 29.7982 31.4934C29.7294 31.5613 29.6477 31.6152 29.5577 31.652C29.4678 31.6887 29.3714 31.7076 29.2741 31.7076ZM27.5654 30.6514C27.4753 30.6514 27.3889 30.6867 27.3252 30.7495C27.2615 30.8124 27.2257 30.8976 27.2257 30.9865C27.2257 31.0754 27.2615 31.1607 27.3252 31.2235C27.3889 31.2864 27.4753 31.3217 27.5654 31.3217H29.2741C29.3642 31.3217 29.4506 31.2864 29.5143 31.2235C29.578 31.1607 29.6138 31.0754 29.6138 30.9865C29.6138 30.8976 29.578 30.8124 29.5143 30.7495C29.4506 30.6867 29.3642 30.6514 29.2741 30.6514H27.5448H27.5654Z" fill="white"/>
</svg>
