<svg width="45" height="45" viewBox="0 0 45 45" fill="none" xmlns="http://www.w3.org/2000/svg">
<path d="M43.2889 0H42.856C42.6053 0.149366 42.3954 0.357678 42.2449 0.606564C38.3744 4.42286 34.6058 8.34024 30.6335 12.1818C28.4436 14.3553 26.2538 16.5794 24.0639 18.7276C24.0112 18.7893 23.9445 18.8376 23.8691 18.8684C23.7938 18.8992 23.7122 18.9116 23.631 18.9045C23.1135 18.7386 22.5622 18.7049 22.0281 18.8065C21.494 18.9081 20.9944 19.1418 20.5754 19.4858C20.3889 19.5873 20.1761 19.6313 19.9643 19.6122C19.125 19.434 18.2572 19.434 17.4179 19.6122C15.6189 20.0306 13.9333 20.8327 12.478 21.9626C8.45471 24.9449 4.48239 27.9524 0.484605 30.96C0.336882 31.0474 0.214558 31.1714 0.12961 31.3198C0.0446613 31.4682 0 31.636 0 31.8066C0 31.9773 0.0446613 32.1451 0.12961 32.2935C0.214558 32.4419 0.336882 32.5659 0.484605 32.6533L11.383 43.4703C11.4728 43.6339 11.6053 43.7703 11.7666 43.8654C11.928 43.9605 12.1121 44.0107 12.2997 44.0107C12.4873 44.0107 12.6715 43.9605 12.8328 43.8654C12.9941 43.7703 13.1266 43.6339 13.2164 43.4703L20.2698 34.2708C21.674 32.5707 22.8865 30.7232 23.8856 28.7612C24.6122 27.4157 24.8632 25.8674 24.5986 24.3636C24.5732 24.2497 24.5737 24.1316 24.6001 24.0179C24.6266 23.9042 24.6783 23.7978 24.7514 23.7065C25.1072 23.3007 25.3469 22.8077 25.4454 22.2787C25.544 21.7497 25.4978 21.2042 25.3116 20.699C25.2824 20.64 25.2672 20.5751 25.2672 20.5094C25.2672 20.4437 25.2824 20.3788 25.3116 20.3199C25.6936 19.9155 26.0755 19.5364 26.4829 19.1573C32.1358 13.5466 37.8142 7.73368 43.4671 2.12297C44.3074 1.28895 44.2056 0 43.2889 0ZM23.4273 21.9626C23.2449 22.2994 23.0227 22.6133 22.7652 22.8978C22.6092 23.0539 22.502 23.2516 22.4568 23.4669C22.4117 23.6822 22.4303 23.9059 22.5106 24.1109C22.8293 24.9932 22.8293 25.9581 22.5106 26.8404C22.3548 27.4977 22.1418 28.1404 21.874 28.7612C21.5685 29.3678 18.9202 32.7544 18.5892 33.1588L12.1979 41.3979L10.8483 40.1343L12.6053 38.1376L14.2349 36.4949C14.3939 36.3305 14.4888 36.1155 14.5027 35.8881C14.5166 35.6607 14.4487 35.4358 14.3109 35.2536C14.1732 35.0714 13.9748 34.9436 13.7509 34.8932C13.5271 34.8428 13.2925 34.8731 13.0891 34.9785C12.9274 35.0838 12.7816 35.2114 12.6562 35.3576L9.75335 38.5168C9.65796 38.6241 9.5559 38.7253 9.44779 38.82L8.07275 37.43C8.52295 37.0084 8.94806 36.5611 9.34593 36.0905C9.4741 35.9331 9.54401 35.7369 9.54401 35.5345C9.54401 35.3321 9.4741 35.1359 9.34593 34.9785C9.23146 34.8181 9.06898 34.6975 8.88156 34.634C8.69415 34.5705 8.49133 34.5672 8.30193 34.6246C8.0834 34.7114 7.88435 34.8402 7.71626 35.0037C7.35977 35.3323 7.02875 35.7114 6.67226 36.0652L5.32269 34.5994L8.22554 32.072L8.88759 31.4655C8.98307 31.3736 9.05899 31.2636 9.11083 31.142C9.16268 31.0205 9.18939 30.8898 9.18939 30.7578C9.18939 30.6258 9.16268 30.4951 9.11083 30.3736C9.05899 30.252 8.98307 30.142 8.88759 30.0501C8.79501 29.9554 8.6842 29.88 8.56172 29.8286C8.43925 29.7771 8.30761 29.7506 8.17461 29.7506C8.04161 29.7506 7.90997 29.7771 7.7875 29.8286C7.66502 29.88 7.55421 29.9554 7.46163 30.0501L6.0866 31.2885L4.04951 33.2346L2.75086 31.9204L11.1284 25.5515C12.1973 24.6545 13.3106 23.811 14.4641 23.0241C15.2787 22.6144 16.1315 22.2843 17.0105 22.0385H17.2142C18.0882 21.6517 19.073 21.5889 19.9897 21.8615C20.2845 21.9264 20.5924 21.8951 20.8678 21.7721C21.1431 21.6491 21.371 21.4412 21.5175 21.1792C21.7367 20.9754 21.9971 20.8203 22.2814 20.7242C22.4407 20.6386 22.6254 20.6119 22.8027 20.649C22.9799 20.686 23.1381 20.7843 23.2491 20.9264C23.3334 20.9794 23.4056 21.0495 23.461 21.1319C23.5163 21.2144 23.5536 21.3075 23.5704 21.4052C23.5872 21.5029 23.5831 21.603 23.5585 21.699C23.5338 21.795 23.4891 21.8848 23.4273 21.9626Z" fill="white"/>
<path d="M36.5411 28.1798C36.4481 28.1806 36.3579 28.1477 36.2876 28.0872C36.2172 28.0267 36.1716 27.9428 36.1592 27.8512C36.1296 27.2743 35.945 26.7158 35.6244 26.2337C35.0638 25.8802 34.4268 25.6637 33.7656 25.6019C33.678 25.5796 33.6003 25.529 33.5448 25.4581C33.4893 25.3872 33.4592 25.2999 33.4592 25.2101C33.4592 25.1203 33.4893 25.0331 33.5448 24.9622C33.6003 24.8913 33.678 24.8407 33.7656 24.8184C34.393 24.6576 34.9817 24.3741 35.4971 23.9844C35.8942 23.4658 36.1565 22.8582 36.261 22.2152V21.9625H36.5666C36.6493 21.9606 36.7301 21.9873 36.7951 22.038C36.8601 22.0887 36.9054 22.1603 36.9231 22.2405C37.0099 22.9071 37.2638 23.5415 37.6615 24.0855C38.1594 24.4631 38.747 24.7069 39.3676 24.7931C39.4689 24.7931 39.566 24.8331 39.6377 24.9042C39.7093 24.9753 39.7495 25.0717 39.7495 25.1722C39.7495 25.2728 39.7093 25.3692 39.6377 25.4403C39.566 25.5114 39.4689 25.5513 39.3676 25.5513C38.7049 25.5659 38.0601 25.7675 37.5087 26.1326C37.1793 26.6743 37.0033 27.2943 36.9995 27.927C36.993 28.0231 36.9499 28.1132 36.879 28.1789C36.808 28.2446 36.7146 28.2811 36.6175 28.2809L36.5411 28.1798ZM34.6059 25.0711C35.1168 25.1678 35.597 25.3845 36.0064 25.703C36.2104 25.9366 36.3584 26.2131 36.4393 26.5117C36.5145 26.1681 36.6717 25.8474 36.8976 25.5766C37.2303 25.2848 37.6341 25.0844 38.0689 24.9953C37.7292 24.8722 37.4176 24.6832 37.1522 24.4393C36.8604 24.1003 36.6435 23.7042 36.5157 23.2767C36.3728 23.6936 36.1379 24.0735 35.8281 24.3887C35.4635 24.6846 35.05 24.9155 34.6059 25.0711Z" fill="white"/>
<path d="M28.2655 37.5057C28.1724 37.5065 28.0823 37.4736 28.0119 37.4131C27.9416 37.3526 27.8959 37.2687 27.8835 37.1772C27.8631 36.5829 27.6781 36.0058 27.3488 35.5091C26.7882 35.1556 26.1512 34.9391 25.49 34.8773C25.4023 34.855 25.3246 34.8044 25.2692 34.7335C25.2137 34.6626 25.1836 34.5753 25.1836 34.4855C25.1836 34.3957 25.2137 34.3085 25.2692 34.2376C25.3246 34.1666 25.4023 34.1161 25.49 34.0938C26.1173 33.933 26.706 33.6495 27.2215 33.2598C27.6185 32.7412 27.8809 32.1336 27.9854 31.4906V31.2379H28.291C28.3736 31.236 28.4544 31.2627 28.5195 31.3134C28.5845 31.3641 28.6297 31.4357 28.6474 31.5159C28.7343 32.1825 28.9882 32.8168 29.3859 33.3609C29.8838 33.7385 30.4714 33.9823 31.0919 34.0685C31.1932 34.0685 31.2904 34.1085 31.362 34.1796C31.4337 34.2506 31.4739 34.3471 31.4739 34.4476C31.4739 34.5482 31.4337 34.6446 31.362 34.7157C31.2904 34.7868 31.1932 34.8267 31.0919 34.8267C30.4293 34.8413 29.7845 35.0429 29.2331 35.408C28.9036 35.9497 28.7277 36.5697 28.7238 37.2024C28.7174 37.2985 28.6743 37.3886 28.6033 37.4543C28.5324 37.52 28.4389 37.5565 28.3419 37.5563L28.2655 37.5057ZM26.3812 34.4223C26.8921 34.519 27.3723 34.7357 27.7817 35.0542C27.9857 35.2879 28.1336 35.5644 28.2146 35.8629C28.2898 35.5193 28.447 35.1987 28.6729 34.9278C29.0056 34.636 29.4094 34.4356 29.8442 34.3465C29.4976 34.234 29.1772 34.0535 28.9021 33.8158C28.6102 33.4768 28.3933 33.0807 28.2655 32.6532C28.1226 33.0701 27.8877 33.45 27.578 33.7652C27.2174 34.0407 26.8129 34.2543 26.3812 34.3971V34.4223Z" fill="white"/>
<path d="M39.4183 39.8308C39.3253 39.8316 39.2351 39.7987 39.1648 39.7382C39.0944 39.6777 39.0488 39.5938 39.0364 39.5023C39.0159 38.908 38.8309 38.3309 38.5016 37.8342C37.941 37.4807 37.304 37.2642 36.6428 37.2024C36.5552 37.1801 36.4775 37.1295 36.422 37.0586C36.3665 36.9877 36.3364 36.9004 36.3364 36.8106C36.3364 36.7208 36.3665 36.6336 36.422 36.5627C36.4775 36.4918 36.5552 36.4412 36.6428 36.4189C37.2702 36.2581 37.8589 35.9746 38.3743 35.5849C38.7714 35.0663 39.0337 34.4587 39.1382 33.8157V33.563H39.4438C39.505 33.5789 39.5609 33.6107 39.6056 33.6551C39.6504 33.6995 39.6824 33.755 39.6984 33.8157C39.7852 34.4823 40.0391 35.1167 40.4369 35.6607C40.9665 36.0458 41.5912 36.2815 42.2448 36.3431C42.3461 36.3431 42.4432 36.383 42.5149 36.4541C42.5865 36.5252 42.6267 36.6216 42.6267 36.7222C42.6267 36.8227 42.5865 36.9191 42.5149 36.9902C42.4432 37.0613 42.3461 37.1013 42.2448 37.1013C41.5821 37.1158 40.9373 37.3175 40.3859 37.6826C40.0565 38.2243 39.8805 38.8442 39.8767 39.477C39.8702 39.5731 39.8271 39.6631 39.7562 39.7289C39.6852 39.7946 39.5918 39.831 39.4947 39.8308H39.4183ZM37.534 36.7474C38.045 36.8441 38.5252 37.0608 38.9345 37.3793C39.1385 37.613 39.2865 37.8895 39.3674 38.188C39.4426 37.8444 39.5998 37.5238 39.8257 37.2529C40.1584 36.9611 40.5622 36.7607 40.9971 36.6716C40.6371 36.5472 40.3075 36.3491 40.0294 36.0903C39.7376 35.7513 39.5207 35.3552 39.3929 34.9278C39.25 35.3446 39.0151 35.7245 38.7053 36.0398C38.3657 36.3373 37.9784 36.5764 37.5595 36.7474H37.534Z" fill="white"/>
</svg>
