<svg width="34" height="43" viewBox="0 0 34 43" fill="none" xmlns="http://www.w3.org/2000/svg">
<path d="M32.7126 15.315C32.5632 15.3149 32.4152 15.3451 32.2774 15.4038C32.1396 15.4624 32.0147 15.5484 31.9101 15.6566C31.8055 15.7647 31.7232 15.893 31.668 16.0338C31.6129 16.1746 31.5861 16.3252 31.5891 16.4767V30.2804L16.9828 40.4395L2.37657 30.2804V5.40637L2.57881 5.17859C11.8009 1.50563 22.0524 1.50563 31.2745 5.17859L16.8929 23.7657L12.2189 19.4151C12.0003 19.1967 11.7057 19.0742 11.3987 19.0742C11.0918 19.0742 10.7972 19.1967 10.5785 19.4151C10.4734 19.5272 10.3914 19.6596 10.3373 19.8043C10.2833 19.949 10.2584 20.1032 10.2639 20.2579C10.2672 20.4119 10.3007 20.5637 10.3624 20.7045C10.4242 20.8453 10.5129 20.9722 10.6235 21.0779L16.1064 26.2486C16.2257 26.3546 16.3647 26.4354 16.5151 26.4863C16.6656 26.5371 16.8246 26.557 16.9828 26.5447C17.1415 26.53 17.2954 26.4818 17.4347 26.4034C17.574 26.3249 17.6956 26.2179 17.7918 26.0891L33.8586 5.13303L33.9935 4.79136C33.9967 4.73826 33.9967 4.68501 33.9935 4.63191C34.0022 4.56386 34.0022 4.49496 33.9935 4.42691V4.2219C34.0018 4.14621 34.0018 4.06981 33.9935 3.99412L33.6564 3.5841L32.1508 2.96909C22.2917 -0.948681 11.3368 -0.948681 1.47772 2.96909L0.556406 3.49299C0.0170986 3.698 0.129454 4.2219 0.129454 4.60913V30.9182C0.0446472 31.0671 0 31.236 0 31.4079C0 31.5798 0.0446472 31.7487 0.129454 31.8976L16.1739 42.8312C16.3363 42.9286 16.5259 42.9686 16.7132 42.9451C16.9245 42.9419 17.1293 42.87 17.2974 42.7401L33.3867 31.8065C33.526 31.6894 33.6325 31.5373 33.6956 31.3655C33.7587 31.1936 33.7762 31.0079 33.7463 30.827V16.4767C33.7529 16.1858 33.6496 15.9035 33.4574 15.6874C33.2651 15.4714 32.9987 15.3382 32.7126 15.315Z" fill="white"/>
</svg>
