<svg width="46" height="45" viewBox="0 0 46 45" fill="none" xmlns="http://www.w3.org/2000/svg">
<path d="M44.5216 43.7583H0.840406C0.760692 43.7583 0.681759 43.7429 0.608114 43.713C0.534468 43.683 0.467552 43.6391 0.411186 43.5838C0.354821 43.5285 0.310109 43.4628 0.279604 43.3906C0.249099 43.3183 0.233398 43.2409 0.233398 43.1626V5.4067C0.233398 5.24872 0.29735 5.09721 0.411186 4.9855C0.525022 4.87379 0.679417 4.81104 0.840406 4.81104H44.5216C44.6826 4.81104 44.8369 4.87379 44.9508 4.9855C45.0646 5.09721 45.1286 5.24872 45.1286 5.4067V43.1626C45.1286 43.3206 45.0646 43.4721 44.9508 43.5838C44.8369 43.6955 44.6826 43.7583 44.5216 43.7583ZM1.44741 42.567H43.9146V6.00236H1.44741V42.6586V42.567Z" fill="white"/>
<path d="M44.5216 44.0333H0.840472C0.617565 44.0333 0.403787 43.9464 0.246168 43.7917C0.0885495 43.6371 0 43.4273 0 43.2086V5.4068C0 5.18805 0.0885495 4.97827 0.246168 4.8236C0.403787 4.66893 0.617565 4.58203 0.840472 4.58203H44.5216C44.7445 4.58203 44.9583 4.66893 45.1159 4.8236C45.2736 4.97827 45.3621 5.18805 45.3621 5.4068V43.1627C45.3685 43.2748 45.3514 43.387 45.312 43.4924C45.2727 43.5979 45.2118 43.6943 45.1331 43.7758C45.0544 43.8573 44.9596 43.9222 44.8544 43.9665C44.7493 44.0107 44.6361 44.0335 44.5216 44.0333ZM0.840472 5.08605C0.741402 5.08605 0.64639 5.12467 0.576337 5.19342C0.506284 5.26216 0.466929 5.3554 0.466929 5.45262V43.1627C0.466929 43.26 0.506284 43.3532 0.576337 43.4219C0.64639 43.4907 0.741402 43.5293 0.840472 43.5293H44.5216C44.6207 43.5293 44.7157 43.4907 44.7858 43.4219C44.8558 43.3532 44.8952 43.26 44.8952 43.1627V5.4068C44.8837 5.31772 44.8394 5.23586 44.7705 5.17674C44.7017 5.11762 44.6131 5.08535 44.5216 5.08605H0.840472ZM43.9146 42.7733H1.44748C1.41682 42.7733 1.38646 42.7673 1.35814 42.7558C1.32981 42.7443 1.30407 42.7274 1.28239 42.7062C1.26072 42.6849 1.24352 42.6596 1.23179 42.6318C1.22005 42.604 1.21401 42.5742 1.21401 42.5442V6.00246C1.21401 5.9417 1.23861 5.88343 1.28239 5.84046C1.32618 5.7975 1.38556 5.77336 1.44748 5.77336H43.9146C43.9453 5.77336 43.9757 5.77928 44.004 5.7908C44.0323 5.80231 44.058 5.81919 44.0797 5.84046C44.1014 5.86174 44.1186 5.88699 44.1303 5.91479C44.1421 5.94258 44.1481 5.97237 44.1481 6.00246V42.6587C44.1252 42.6984 44.0908 42.7306 44.0492 42.751C44.0076 42.7714 43.9607 42.7792 43.9146 42.7733ZM1.68094 42.3151H43.7045V6.23156H1.68094V42.338V42.3151Z" fill="white"/>
<path d="M33.6888 9.23269C33.5278 9.23269 33.3734 9.16994 33.2596 9.05823C33.1457 8.94652 33.0818 8.79501 33.0818 8.63703V0.824667C33.0818 0.666687 33.1457 0.515179 33.2596 0.40347C33.3734 0.291761 33.5278 0.229004 33.6888 0.229004C33.8498 0.229004 34.0042 0.291761 34.118 0.40347C34.2319 0.515179 34.2958 0.666687 34.2958 0.824667V8.63703C34.2958 8.79501 34.2319 8.94652 34.118 9.05823C34.0042 9.16994 33.8498 9.23269 33.6888 9.23269Z" fill="white"/>
<path d="M33.6889 9.46189C33.466 9.46189 33.2522 9.375 33.0946 9.22033C32.9369 9.06565 32.8484 8.85587 32.8484 8.63713V0.824765C32.8484 0.606023 32.9369 0.396242 33.0946 0.241568C33.2522 0.0868947 33.466 0 33.6889 0C33.9118 0 34.1255 0.0868947 34.2832 0.241568C34.4408 0.396242 34.5293 0.606023 34.5293 0.824765V8.63713C34.5293 8.85587 34.4408 9.06565 34.2832 9.22033C34.1255 9.375 33.9118 9.46189 33.6889 9.46189ZM33.6889 0.504023C33.5898 0.504023 33.4948 0.542643 33.4247 0.611387C33.3547 0.680131 33.3153 0.773367 33.3153 0.870585V8.63713C33.3153 8.73738 33.3559 8.83353 33.4281 8.90443C33.5004 8.97532 33.5984 9.01515 33.7005 9.01515C33.8027 9.01515 33.9007 8.97532 33.9729 8.90443C34.0452 8.83353 34.0858 8.73738 34.0858 8.63713V0.824765C34.074 0.7316 34.0263 0.6464 33.9525 0.586725C33.8786 0.52705 33.7843 0.497448 33.6889 0.504023Z" fill="white"/>
<path d="M11.2996 9.23269C11.1386 9.23269 10.9843 9.16994 10.8704 9.05823C10.7566 8.94652 10.6926 8.79501 10.6926 8.63703V0.824667C10.6926 0.746444 10.7083 0.668986 10.7388 0.596716C10.7693 0.524447 10.8141 0.458783 10.8704 0.40347C10.9268 0.348158 10.9937 0.304281 11.0673 0.274346C11.141 0.244411 11.2199 0.229004 11.2996 0.229004C11.3793 0.229004 11.4583 0.244411 11.5319 0.274346C11.6056 0.304281 11.6725 0.348158 11.7289 0.40347C11.7852 0.458783 11.8299 0.524447 11.8604 0.596716C11.8909 0.668986 11.9066 0.746444 11.9066 0.824667V8.63703C11.9066 8.79501 11.8427 8.94652 11.7289 9.05823C11.615 9.16994 11.4606 9.23269 11.2996 9.23269Z" fill="white"/>
<path d="M11.2997 9.46189C11.0768 9.46189 10.863 9.375 10.7054 9.22033C10.5478 9.06565 10.4592 8.85587 10.4592 8.63713V0.824765C10.4592 0.606023 10.5478 0.396242 10.7054 0.241568C10.863 0.0868947 11.0768 0 11.2997 0C11.5226 0 11.7364 0.0868947 11.894 0.241568C12.0516 0.396242 12.1402 0.606023 12.1402 0.824765V8.63713C12.1402 8.74544 12.1184 8.85269 12.0762 8.95275C12.034 9.05282 11.972 9.14374 11.894 9.22033C11.816 9.29691 11.7233 9.35766 11.6213 9.39911C11.5194 9.44056 11.4101 9.46189 11.2997 9.46189ZM11.2997 0.504023C11.2006 0.504023 11.1056 0.542643 11.0356 0.611387C10.9655 0.680131 10.9262 0.773367 10.9262 0.870585V8.63713C10.9262 8.73738 10.9667 8.83353 11.039 8.90443C11.1112 8.97532 11.2092 9.01515 11.3114 9.01515C11.4135 9.01515 11.5115 8.97532 11.5838 8.90443C11.656 8.83353 11.6966 8.73738 11.6966 8.63713V0.824765C11.6849 0.7316 11.6372 0.6464 11.5633 0.586725C11.4895 0.52705 11.3951 0.497448 11.2997 0.504023Z" fill="white"/>
<path d="M11.8599 32.5779V31.6844L13.0973 30.6306L14.358 29.5538L15.4786 28.5457C15.9455 28.1181 16.3113 27.7668 16.5759 27.4919L17.3463 26.5296C17.619 26.2083 17.8613 25.8632 18.0701 25.4987C18.4546 24.7941 18.6552 24.007 18.6537 23.2077C18.6724 22.5387 18.4398 21.8864 18 21.3749C17.7357 21.1077 17.4144 20.9014 17.0592 20.7707C16.704 20.64 16.3236 20.5881 15.9455 20.6188C15.5441 20.5908 15.1412 20.6503 14.7659 20.7928C14.3906 20.9354 14.052 21.1576 13.7743 21.4436C13.2289 22.0854 12.9387 22.8992 12.9572 23.7346H11.8599C11.8466 22.6097 12.2823 21.5242 13.0739 20.7105C13.4626 20.3491 13.9211 20.0677 14.4222 19.8828C14.9234 19.6979 15.4572 19.6132 15.9922 19.6337C17.0502 19.5859 18.0865 19.9385 18.8872 20.6188C19.2653 20.9791 19.5592 21.4155 19.7486 21.8981C19.9381 22.3807 20.0185 22.8978 19.9845 23.4139C19.9772 23.9711 19.8665 24.5223 19.6576 25.0405C19.4622 25.5538 19.2117 26.0453 18.9105 26.5067C18.5559 27.0271 18.1576 27.5176 17.7199 27.973C17.2062 28.5228 16.786 28.9429 16.4592 29.233L15.0584 30.4702L13.8911 31.5012H20.4281V32.5779H11.8599Z" fill="white"/>
<path d="M20.4282 32.7615H11.86C11.7981 32.7615 11.7387 32.7374 11.695 32.6944C11.6512 32.6515 11.6266 32.5932 11.6266 32.5324V31.6848C11.6069 31.633 11.6069 31.5761 11.6266 31.5244L12.8639 30.4705L14.1246 29.3937L15.2453 28.3857C15.6889 27.9733 16.0624 27.6297 16.3192 27.3547L17.3465 26.3696C17.6109 26.0554 17.8454 25.7179 18.0468 25.3616C18.4 24.7202 18.592 24.0055 18.6072 23.2767C18.6262 22.6573 18.4099 22.053 18.0002 21.5814C17.7573 21.3354 17.4614 21.146 17.1341 21.027C16.8069 20.9081 16.4566 20.8627 16.1091 20.8941C15.742 20.8689 15.3738 20.9236 15.0307 21.0543C14.6876 21.185 14.3783 21.3884 14.1246 21.6501C13.6388 22.2239 13.367 22.9432 13.3542 23.6891C13.3484 23.7458 13.3213 23.7984 13.2781 23.8365C13.2349 23.8746 13.1788 23.8956 13.1208 23.8953H11.86C11.8074 23.9146 11.7493 23.9146 11.6966 23.8953C11.6769 23.8436 11.6769 23.7866 11.6966 23.7349C11.6891 22.5505 12.1493 21.4092 12.9807 20.5504C13.3898 20.1746 13.8707 19.882 14.3956 19.6893C14.9205 19.4967 15.479 19.4078 16.0391 19.4278C17.1506 19.3869 18.2362 19.7638 19.0741 20.4817C19.4665 20.8624 19.7716 21.3209 19.9689 21.8267C20.1662 22.3324 20.2511 22.8736 20.2181 23.4142C20.2067 23.9954 20.088 24.5698 19.8679 25.1095C19.6661 25.6388 19.4078 26.1456 19.0974 26.6216C18.7356 27.1502 18.3296 27.6484 17.8834 28.1108C17.3698 28.6606 16.9262 29.0959 16.6227 29.3937L15.2219 30.6309L14.4982 31.2495H20.4515C20.4822 31.2495 20.5125 31.2554 20.5409 31.2669C20.5692 31.2784 20.5949 31.2953 20.6166 31.3166C20.6383 31.3378 20.6555 31.3631 20.6672 31.3909C20.679 31.4187 20.685 31.4485 20.685 31.4786V32.5783C20.6736 32.635 20.6409 32.6853 20.5932 32.7193C20.5456 32.7533 20.4867 32.7684 20.4282 32.7615ZM12.0935 32.3033H20.1947V31.7077H13.8678C13.8221 31.707 13.7776 31.6933 13.7399 31.668C13.7021 31.6428 13.6726 31.6073 13.6552 31.5658C13.6378 31.5243 13.6332 31.4788 13.642 31.4348C13.6507 31.3907 13.6724 31.3502 13.7044 31.3182L15.0118 30.2872L16.4126 29.073C16.7394 28.7752 17.1597 28.3628 17.65 27.8129C18.0783 27.3718 18.4687 26.8967 18.8173 26.3925C19.1101 25.938 19.3528 25.4542 19.541 24.9492C19.6799 24.4497 19.7273 23.93 19.6811 23.4142C19.7108 22.932 19.6344 22.4492 19.4571 21.9986C19.2799 21.548 19.0059 21.14 18.6539 20.8024C17.8987 20.159 16.9216 19.823 15.9223 19.8631C15.418 19.8434 14.9146 19.9224 14.4417 20.0955C13.9687 20.2686 13.5356 20.5322 13.1674 20.8712C12.5216 21.5701 12.1493 22.4712 12.1169 23.4142H12.8406C12.8906 22.6389 13.1934 21.8999 13.7044 21.3065C14.0014 20.9952 14.3644 20.7517 14.7678 20.5934C15.1713 20.435 15.6053 20.3656 16.0391 20.3901C16.4667 20.3406 16.9003 20.3893 17.3054 20.5325C17.7106 20.6756 18.0763 20.9092 18.3737 21.2148C18.8435 21.7662 19.0925 22.4666 19.0741 23.1851C19.0591 23.9851 18.8511 24.7702 18.4671 25.4761C18.245 25.8578 17.9871 26.2183 17.6967 26.5529L16.8095 27.5609C16.5527 27.8588 16.1791 28.2024 15.7122 28.6148L14.5682 29.6228L13.3075 30.6996L12.1402 31.6848V32.2117L12.0935 32.3033Z" fill="white"/>
<path d="M25.2375 20.2756C26.0865 19.6811 27.1139 19.3827 28.1558 19.4279C29.1778 19.3771 30.1807 19.7133 30.9574 20.3672C31.2872 20.6548 31.5513 21.0076 31.7324 21.4024C31.9135 21.7973 32.0074 22.2252 32.008 22.6582C32.0148 23.3107 31.8014 23.9471 31.4009 24.4681C31.0004 24.9971 30.4348 25.3833 29.79 25.5678C30.5269 25.7288 31.1762 26.1536 31.6111 26.7591C32.0602 27.4403 32.2881 28.2392 32.2648 29.0501C32.2729 29.5134 32.1814 29.9732 31.9964 30.3996C31.8114 30.8259 31.5369 31.2092 31.1908 31.5244C30.7887 31.8759 30.3197 32.2353 29.8109 32.4083C29.302 32.5813 28.7867 32.8665 28.2492 32.8345C27.1424 32.879 25.8203 32.3201 24.934 31.668C24.5331 31.3496 24.1205 30.8491 23.8834 30.3996C23.6463 29.9501 23.5334 30.0052 23.5 29.5001H25C25.0765 30.1922 25.363 30.3077 25.9145 30.7455C26.5776 31.2554 27.4085 31.5082 28.2492 31.4557C28.6389 31.4795 29.0295 31.4269 29.3982 31.3011C29.767 31.1752 30.1065 30.9785 30.3971 30.7226C30.6473 30.4725 30.8427 30.1748 30.9712 29.8477C31.0997 29.5207 31.1586 29.1713 31.1441 28.821C31.2035 28.3858 30.7935 27.9036 30.6167 27.5001C30.44 27.0967 30.1737 27.1697 29.8109 26.9126C28.8887 26.4244 27.6837 26.2154 26.6383 26.2845L26.6167 26.0001L26.6383 25.2012H27.0585C29.5644 25.2012 30.8173 24.4376 30.8173 22.9102C30.8287 22.5918 30.7724 22.2745 30.6518 21.9786C30.5312 21.6827 30.349 21.4148 30.1169 21.192C29.5561 20.7336 28.8374 20.504 28.1091 20.5505C27.3825 20.5185 26.664 20.7108 26.0546 21.1003C25.7994 21.2843 25.5851 21.5173 25.4245 21.7851C25.264 22.0529 25.1606 22.35 25.1208 22.6582H23.8834C23.9199 22.1885 24.0598 21.7322 24.2936 21.3209C24.5274 20.9095 24.8495 20.5528 25.2375 20.2756Z" fill="white"/>
<path d="M28.0625 33.0135C26.9054 33.0561 25.7683 32.7084 24.8407 32.0284C24.4165 31.6936 24.067 31.2768 23.814 30.8038C23.561 30.3309 23.4098 29.8119 23.3698 29.2792C23.357 29.2503 23.3503 29.2191 23.3503 29.1875C23.3503 29.156 23.357 29.1248 23.3698 29.0959C23.4225 29.0766 23.4806 29.0766 23.5333 29.0959H24.7006C24.7587 29.0956 24.8148 29.1166 24.8579 29.1547C24.9011 29.1928 24.9282 29.2454 24.934 29.3021C24.9618 29.6205 25.0571 29.9298 25.2139 30.2099C25.3707 30.49 25.5856 30.7349 25.8446 30.9287C26.4528 31.3831 27.2058 31.6104 27.9691 31.5702C28.3281 31.5932 28.6883 31.5463 29.0289 31.4323C29.3694 31.3183 29.6836 31.1393 29.9535 30.9058C30.1844 30.6783 30.364 30.4058 30.4806 30.1058C30.5972 29.8058 30.6483 29.4852 30.6306 29.1646C30.6639 28.7805 30.5979 28.3944 30.4388 28.042C30.2796 27.6896 30.0324 27.3823 29.7201 27.1485C28.8333 26.68 27.8301 26.4656 26.8251 26.5299H26.5216C26.4909 26.5299 26.4606 26.524 26.4323 26.5125C26.4039 26.501 26.3782 26.4841 26.3565 26.4628C26.3348 26.4416 26.3176 26.4163 26.3059 26.3885C26.2942 26.3607 26.2881 26.3309 26.2881 26.3008V25.2012C26.2881 25.1404 26.3127 25.0821 26.3565 25.0392C26.4003 24.9962 26.4597 24.9721 26.5216 24.9721H26.9418C29.2765 24.9721 30.4671 24.2618 30.4671 22.8643C30.4837 22.5753 30.4358 22.2862 30.327 22.0172C30.2181 21.7481 30.0508 21.5056 29.8368 21.3064C29.3181 20.8932 28.6589 20.6885 27.9924 20.7337C27.3087 20.6984 26.6308 20.8747 26.0547 21.2377C25.8236 21.4008 25.6295 21.6092 25.4848 21.8498C25.3401 22.0904 25.248 22.3578 25.2142 22.6352C25.2033 22.6877 25.1739 22.7348 25.1313 22.7683C25.0886 22.8018 25.0354 22.8196 24.9807 22.8185H23.7667C23.734 22.8187 23.7016 22.8121 23.6716 22.7991C23.6417 22.7862 23.6148 22.7673 23.5928 22.7435C23.5708 22.7197 23.5541 22.6917 23.5439 22.6612C23.5336 22.6307 23.53 22.5984 23.5333 22.5665C23.58 22.079 23.731 21.6066 23.9764 21.1803C24.2218 20.754 24.5561 20.3832 24.9574 20.0922C25.8507 19.4758 26.9244 19.1621 28.0158 19.1987C29.0962 19.1425 30.1574 19.4951 30.9808 20.1838C31.3443 20.5026 31.6328 20.8952 31.8263 21.3343C32.0198 21.7734 32.1137 22.2486 32.1014 22.7269C32.1122 23.3493 31.9394 23.9616 31.6039 24.49C31.2684 25.0184 30.7845 25.4403 30.2103 25.7052C30.7947 25.9317 31.2982 26.3222 31.6578 26.8278C32.1511 27.5681 32.396 28.4413 32.3582 29.325C32.3658 29.8182 32.2679 30.3075 32.0709 30.7613C31.8738 31.2152 31.582 31.6234 31.2142 31.9596C30.7861 32.3312 30.287 32.6157 29.746 32.7966C29.205 32.9775 28.6327 33.0512 28.0625 33.0135ZM23.8601 29.4854C23.9035 29.9305 24.0374 30.3627 24.254 30.7562C24.4705 31.1497 24.7653 31.4966 25.1208 31.7764C25.9702 32.392 27.0072 32.707 28.0625 32.6699C29.0862 32.7329 30.0937 32.3951 30.864 31.7305C31.1854 31.4388 31.4408 31.0842 31.6137 30.6896C31.7867 30.2949 31.8733 29.8691 31.8679 29.4395C31.9175 28.6321 31.705 27.83 31.2609 27.1485C30.8611 26.5879 30.2611 26.1954 29.58 26.0488C29.5308 26.0337 29.4881 26.003 29.4585 25.9616C29.429 25.9201 29.4142 25.8703 29.4166 25.8197C29.4191 25.7731 29.4362 25.7284 29.4654 25.6915C29.4946 25.6547 29.5346 25.6275 29.58 25.6135C30.1791 25.4386 30.7037 25.0767 31.0742 24.5826C31.4458 24.1021 31.6431 23.5134 31.6345 22.9101C31.6615 22.4821 31.5894 22.0537 31.4236 21.6569C31.2578 21.2601 31.0027 20.9053 30.6773 20.6191C29.9426 20.0104 28.9993 19.6991 28.0391 19.7485C27.0498 19.7201 26.077 20.0009 25.2609 20.5504C24.9396 20.7772 24.667 21.0638 24.4587 21.3941C24.2504 21.7243 24.1105 22.0915 24.0469 22.4748H24.794C24.9146 21.8674 25.2649 21.3273 25.7745 20.9628C26.4244 20.5435 27.192 20.3352 27.9691 20.3671C28.751 20.3275 29.5189 20.5814 30.1169 21.0773C30.3774 21.3211 30.5811 21.6172 30.714 21.9454C30.847 22.2736 30.9061 22.6262 30.8874 22.9789C30.8874 24.6513 29.5566 25.5219 26.9185 25.5448H26.685V26.1405H26.9185C28.0142 26.0717 29.1073 26.31 30.0703 26.8278C30.4372 27.0874 30.732 27.4331 30.9277 27.8333C31.1235 28.2335 31.2139 28.6755 31.1909 29.1188C31.2048 29.499 31.1396 29.8779 30.9991 30.2325C30.8586 30.587 30.6458 30.9097 30.3738 31.1807C30.0591 31.4608 29.6903 31.6762 29.2893 31.8139C28.8883 31.9516 28.4631 32.009 28.0391 31.9826C27.1954 32.0018 26.3708 31.7348 25.7045 31.2265C25.1619 30.7942 24.7971 30.1839 24.6772 29.5083H23.8601V29.4854Z" fill="white"/>
<path d="M44.5216 11.9594H1.28401C1.12302 11.9594 0.968626 11.8966 0.85479 11.7849C0.740955 11.6732 0.677002 11.5217 0.677002 11.3637C0.677002 11.2058 0.740955 11.0542 0.85479 10.9425C0.968626 10.8308 1.12302 10.7681 1.28401 10.7681H44.5216C44.6826 10.7681 44.837 10.8308 44.9508 10.9425C45.0646 11.0542 45.1286 11.2058 45.1286 11.3637C45.1286 11.5217 45.0646 11.6732 44.9508 11.7849C44.837 11.8966 44.6826 11.9594 44.5216 11.9594Z" fill="white"/>
<path d="M44.5217 12.1652H1.28407C1.06117 12.1652 0.847391 12.0783 0.689772 11.9236C0.532153 11.7689 0.443604 11.5591 0.443604 11.3404C0.443604 11.1216 0.532153 10.9119 0.689772 10.7572C0.847391 10.6025 1.06117 10.5156 1.28407 10.5156H44.5217C44.7446 10.5156 44.9583 10.6025 45.116 10.7572C45.2736 10.9119 45.3621 11.1216 45.3621 11.3404C45.3621 11.5591 45.2736 11.7689 45.116 11.9236C44.9583 12.0783 44.7446 12.1652 44.5217 12.1652ZM1.28407 10.9738C1.18191 10.9738 1.08393 11.0137 1.01169 11.0845C0.939444 11.1554 0.898859 11.2516 0.898859 11.3518C0.898859 11.4521 0.939444 11.5483 1.01169 11.6191C1.08393 11.69 1.18191 11.7299 1.28407 11.7299H44.5217C44.6238 11.7299 44.7218 11.69 44.794 11.6191C44.8663 11.5483 44.9069 11.4521 44.9069 11.3518C44.9069 11.2516 44.8663 11.1554 44.794 11.0845C44.7218 11.0137 44.6238 10.9738 44.5217 10.9738H1.28407Z" fill="white"/>
</svg>
