<svg width="46" height="48" viewBox="0 0 46 48" fill="none" xmlns="http://www.w3.org/2000/svg">
<path d="M40.1598 47.2413H3.86448C2.63736 46.9973 1.55314 46.2755 0.843934 45.2305C0.134732 44.1855 -0.14308 42.9003 0.0699762 41.65C0.0699762 31.9071 0.0699762 22.1307 0.0699762 12.3879C0.0124414 11.6799 0.109776 10.9679 0.35502 10.3026C0.600263 9.63727 0.987356 9.03517 1.48862 8.53934C1.98988 8.04351 2.59292 7.66619 3.25462 7.43437C3.91632 7.20255 4.62033 7.12196 5.31629 7.19835C9.1438 7.19835 13.0043 7.19835 16.8318 7.19835C17.478 7.18019 18.1109 7.00816 18.6796 6.69614C22.639 4.55338 26.5325 2.34365 30.492 0H31.5149C31.9991 0.165681 32.4434 0.433249 32.8187 0.785194C33.1939 1.13714 33.4918 1.56553 33.6926 2.04232C34.0886 2.84586 34.6495 3.58244 34.9464 4.41945C35.1812 5.35111 35.7626 6.15417 36.5687 6.65989C37.3747 7.16561 38.3426 7.33462 39.2689 7.13139C39.8881 7.07414 40.5122 7.15634 41.0966 7.37215C41.6809 7.58795 42.2111 7.93203 42.6492 8.37979C43.0873 8.82756 43.4226 9.36797 43.6311 9.96243C43.8396 10.5569 43.9161 11.1907 43.8553 11.8187C43.8553 14.7985 43.8553 17.8117 43.8553 20.7915V21.9968H46V33.5142H43.8883C43.8883 36.2596 43.8883 38.8711 43.8883 41.5161C44.0228 42.141 44.0326 42.787 43.9169 43.4158C43.8013 44.0447 43.5627 44.6436 43.2151 45.1773C42.8675 45.711 42.4181 46.1686 41.8933 46.5231C41.3685 46.8776 40.7791 47.1218 40.1598 47.2413ZM14.2911 8.97283H5.01933C4.60474 8.91671 4.18297 8.95889 3.78716 9.09606C3.39134 9.23323 3.03226 9.46164 2.7381 9.76336C2.44395 10.0651 2.22274 10.4319 2.09185 10.835C1.96095 11.2381 1.92395 11.6665 1.98373 12.0865C1.98373 22.1531 1.98373 32.1973 1.98373 42.2192C1.91696 42.6449 1.94995 43.0806 2.08001 43.491C2.21008 43.9015 2.43356 44.275 2.73237 44.5815C3.03119 44.8879 3.39692 45.1187 3.79997 45.2551C4.20302 45.3914 4.63206 45.4295 5.05233 45.3663H39.0709C39.4941 45.4221 39.9244 45.378 40.328 45.2373C40.7317 45.0967 41.0979 44.8633 41.3981 44.5555C41.6982 44.2477 41.9243 43.8736 42.0587 43.4626C42.193 43.0515 42.2319 42.6145 42.1725 42.1857C42.1725 39.6077 42.1725 37.0297 42.1725 34.4516C42.1725 34.1838 42.1725 33.916 42.1725 33.5477C40.3577 33.5477 38.576 33.5477 36.7942 33.5477C35.8496 33.6526 34.8954 33.6301 33.9566 33.4807C32.6027 33.0673 31.4572 32.1417 30.7571 30.8954C30.0569 29.649 29.8557 28.1772 30.1951 26.7846C30.3637 25.4591 31.003 24.2415 31.9931 23.3601C32.9833 22.4787 34.2562 21.994 35.5734 21.9968H42.1725V13.1914H5.54726C4.88735 13.1914 4.32642 13.1914 4.32642 12.2874C4.32642 11.3834 4.88735 11.4169 5.51427 11.4504C6.30526 11.3962 7.09896 11.3962 7.88996 11.4504C10.2614 11.5086 12.5604 10.6188 14.2911 8.97283ZM36.7282 11.4169L32.0428 2.87934C31.4489 1.80796 31.1519 1.741 30.0631 2.34365L14.984 10.8812L14.1921 11.4169H36.6952H36.7282ZM44.2842 23.9052C41.2156 23.9052 38.213 23.9052 35.2434 23.9052C34.3476 23.9648 33.5079 24.3684 32.8949 25.0339C32.282 25.6994 31.9419 26.5768 31.9438 27.4877C31.7804 28.4286 31.9905 29.3968 32.5284 30.181C33.0663 30.9652 33.8881 31.5015 34.8145 31.6727C38.114 31.6727 41.1166 31.6727 44.2842 31.6727V23.9052ZM41.9745 11.4504C41.9745 9.542 40.0278 8.47062 37.5531 9.14023C38.576 11.4504 38.576 11.4504 41.0506 11.4504H41.9745Z" fill="white"/>
<path d="M38.3122 27.9565C38.3122 28.4848 38.1054 28.9915 37.7372 29.3651C37.369 29.7387 36.8697 29.9486 36.349 29.9486C35.8283 29.9486 35.3289 29.7387 34.9608 29.3651C34.5926 28.9915 34.3857 28.4848 34.3857 27.9565C34.3857 27.4281 34.5926 26.9214 34.9608 26.5478C35.3289 26.1742 35.8283 25.9644 36.349 25.9644C36.8697 25.9644 37.369 26.1742 37.7372 26.5478C38.1054 26.9214 38.3122 27.4281 38.3122 27.9565Z" fill="white"/>
</svg>
